<?xml version="1.0" encoding="UTF-8" standalone="no"?>
<!-- Generator: Adobe Illustrator 16.0.0, SVG Export Plug-In . SVG Version: 6.00 Build 0)  -->

<svg
   version="1.1"
   id="Layer_1"
   x="0px"
   y="0px"
   width="938.34302"
   height="165.71899"
   viewBox="0 0 938.34302 165.71899"
   enable-background="new 0 0 1242 400"
   xml:space="preserve"
   sodipodi:docname="nicknames_logo_bright.svg"
   inkscape:version="1.3 (0e150ed6c4, 2023-07-21)"
   xmlns:inkscape="http://www.inkscape.org/namespaces/inkscape"
   xmlns:sodipodi="http://sodipodi.sourceforge.net/DTD/sodipodi-0.dtd"
   xmlns="http://www.w3.org/2000/svg"
   xmlns:svg="http://www.w3.org/2000/svg"><defs
   id="defs11" /><sodipodi:namedview
   id="namedview11"
   pagecolor="#ffffff"
   bordercolor="#000000"
   borderopacity="0.25"
   inkscape:showpageshadow="2"
   inkscape:pageopacity="0.0"
   inkscape:pagecheckerboard="0"
   inkscape:deskcolor="#d1d1d1"
   inkscape:zoom="0.93639291"
   inkscape:cx="477.89768"
   inkscape:cy="84.900258"
   inkscape:window-width="1920"
   inkscape:window-height="974"
   inkscape:window-x="-11"
   inkscape:window-y="-11"
   inkscape:window-maximized="1"
   inkscape:current-layer="Layer_1" />&#10;<path
   fill="#0e254f"
   d="M 142.639,20.653 C 128.815,7.141 110.209,0 88.832,0 63.465,0 41.419,8.562 25.085,24.761 8.674,41.028 0,63.04 0,88.416 c 0,29.874 13.002,47.708 23.908,57.407 14.844,13.203 34.211,19.896 57.562,19.896 12.375,0 21.658,-1.049 29.217,-3.302 20.66,-6.155 28.183,-21.767 28.363,-34.504 2.903,-2.138 5.652,-4.569 8.229,-7.295 11.13,-11.763 16.773,-27.925 16.773,-48.038 0.001,-20.274 -7.403,-38.23 -21.413,-51.927 z"
   id="path1" />&#10;<g
   id="g2"
   transform="translate(-142.847,-115.167)">&#10;	<path
   fill="#f874a3"
   d="m 251.818,242.609 c 0,5.463 -9.166,8.195 -27.5,8.195 -15.832,0 -28.357,-4.099 -37.568,-12.291 -9.215,-8.195 -13.82,-19.838 -13.82,-34.932 0,-17.5 5.393,-31.597 16.182,-42.292 10.785,-10.695 24.975,-16.042 42.568,-16.042 13.61,0 24.537,4.027 32.779,12.083 8.239,8.055 12.359,18.194 12.359,30.416 0,12.222 -2.846,21.344 -8.541,27.362 -5.694,6.019 -12.662,9.027 -20.902,9.027 -2.874,0 -5.674,-0.603 -8.402,-1.808 -2.733,-1.202 -4.748,-2.545 -6.043,-4.027 -4.352,3.8 -9.514,5.695 -15.484,5.695 -5.974,0 -10.557,-1.574 -13.751,-4.724 -3.194,-3.146 -4.792,-7.916 -4.792,-14.306 0,-10.091 3.562,-18.61 10.694,-25.555 7.129,-6.945 15.047,-10.417 23.749,-10.417 7.314,0 11.806,1.437 13.475,4.306 0.832,1.482 1.248,3.034 1.248,4.654 0,1.621 -1.298,11.829 -3.888,30.624 l 5.833,0.277 c 1.479,0 2.867,-0.557 4.168,-1.666 1.295,-1.111 2.312,-2.36 3.055,-3.75 1.943,-3.333 2.916,-8.38 2.916,-15.139 0,-8.889 -2.686,-15.949 -8.057,-21.18 -5.369,-5.23 -12.453,-7.847 -21.25,-7.847 -13.055,0 -23.402,4.026 -31.041,12.083 -7.639,8.055 -11.457,18.565 -11.457,31.527 0,22.037 13.193,33.057 39.582,33.057 8.147,0 14.723,-0.834 19.723,-2.5 0.463,0.464 1.156,1.343 2.084,2.639 1.386,2.414 2.081,4.588 2.081,6.531 z m -23.889,-57.22 c -2.039,0 -4.098,1.806 -6.18,5.417 -2.084,3.611 -3.219,7.826 -3.402,12.639 0,3.427 1.527,5.139 4.582,5.139 1.758,0 3.009,-0.417 3.752,-1.249 l 2.777,-19.862 c 0.184,-1.39 -0.326,-2.084 -1.529,-2.084 z"
   id="path2" />&#10;</g>&#10;<g
   enable-background="new    "
   id="g11"
   transform="translate(-142.847,-115.167)">&#10;	<path
   fill="#0e254f"
   d="m 346.857,249.806 v -92.57 h 24.447 l 19.228,33.924 c 5.494,9.752 10.987,21.289 15.108,31.727 h 0.412 c -1.374,-12.224 -1.786,-24.722 -1.786,-38.594 v -27.057 h 19.229 v 92.57 H 401.52 l -19.777,-35.71 c -5.494,-9.889 -11.537,-21.837 -16.069,-32.688 l -0.412,0.138 c 0.549,12.224 0.824,25.271 0.824,40.379 v 27.881 z"
   id="path3" />&#10;	<path
   fill="#0e254f"
   d="m 462.632,157.235 v 92.57 h -21.014 v -92.57 z"
   id="path4" />&#10;	<path
   fill="#0e254f"
   d="m 548.743,247.196 c -3.846,1.923 -12.498,3.982 -23.76,3.982 -32.001,0 -48.482,-19.914 -48.482,-46.284 0,-31.59 22.524,-49.17 50.542,-49.17 10.851,0 19.091,2.197 22.8,4.12 l -4.258,16.619 c -4.258,-1.785 -10.164,-3.434 -17.581,-3.434 -16.619,0 -29.529,10.026 -29.529,30.628 0,18.541 10.987,30.216 29.667,30.216 6.318,0 13.322,-1.374 17.443,-3.021 z"
   id="path5" />&#10;	<path
   fill="#0e254f"
   d="m 562.471,157.235 h 20.739 v 40.929 h 0.412 c 2.061,-3.571 4.258,-6.867 6.317,-10.163 l 21.014,-30.766 h 25.683 l -30.627,39.418 32.276,53.152 h -24.447 l -22.662,-39.967 -7.966,9.751 v 30.216 h -20.739 z"
   id="path6" />&#10;	<path
   fill="#0e254f"
   d="m 646.797,249.806 v -92.57 h 24.447 l 19.229,33.924 c 5.494,9.752 10.986,21.289 15.107,31.727 h 0.412 c -1.373,-12.224 -1.785,-24.722 -1.785,-38.594 v -27.057 h 19.229 v 92.57 h -21.977 l -19.777,-35.71 c -5.494,-9.889 -11.537,-21.837 -16.068,-32.688 l -0.412,0.138 c 0.549,12.224 0.824,25.271 0.824,40.379 v 27.881 z"
   id="path7" />&#10;	<path
   fill="#0e254f"
   d="m 763.121,226.045 -6.594,23.761 h -21.699 l 28.293,-92.57 h 27.469 l 28.705,92.57 H 796.77 l -7.141,-23.761 z m 23.484,-15.657 -5.768,-19.64 c -1.648,-5.494 -3.297,-12.361 -4.67,-17.855 h -0.275 c -1.373,5.494 -2.746,12.499 -4.256,17.855 l -5.494,19.64 z"
   id="path8" />&#10;	<path
   fill="#0e254f"
   d="m 909.936,214.371 c -0.412,-11.125 -0.824,-24.585 -0.824,-38.045 H 908.7 c -2.885,11.812 -6.73,24.997 -10.301,35.847 l -11.262,36.122 h -16.344 l -9.889,-35.847 c -3.021,-10.851 -6.182,-24.035 -8.379,-36.122 h -0.275 c -0.549,12.499 -0.961,26.782 -1.646,38.319 l -1.648,35.16 H 829.59 l 5.904,-92.57 h 27.881 l 9.066,30.902 c 2.883,10.713 5.768,22.25 7.828,33.101 h 0.412 c 2.609,-10.713 5.768,-22.937 8.789,-33.237 l 9.889,-30.766 h 27.332 l 5.082,92.57 h -20.465 z"
   id="path9" />&#10;	<path
   fill="#0e254f"
   d="m 1002.91,210.662 h -34.06 v 21.976 h 38.045 v 17.168 h -59.059 v -92.57 h 57.135 v 17.168 H 968.85 v 19.229 h 34.061 v 17.029 z"
   id="path10" />&#10;	<path
   fill="#0e254f"
   d="m 1021.859,228.242 c 5.631,2.885 14.283,5.769 23.211,5.769 9.615,0 14.695,-3.982 14.695,-10.025 0,-5.769 -4.395,-9.065 -15.52,-13.048 -15.383,-5.356 -25.408,-13.872 -25.408,-27.332 0,-15.794 13.186,-27.881 35.023,-27.881 10.438,0 18.129,2.197 23.623,4.67 l -4.67,16.894 c -3.709,-1.786 -10.301,-4.396 -19.365,-4.396 -9.064,0 -13.461,4.12 -13.461,8.928 0,5.905 5.219,8.516 17.168,13.048 16.344,6.043 24.035,14.559 24.035,27.606 0,15.52 -11.947,28.704 -37.357,28.704 -10.574,0 -21.014,-2.746 -26.232,-5.631 z"
   id="path11" />&#10;</g>&#10;</svg>
